<?xml version="1.0" encoding="utf-8"?>
<!-- Generator: Adobe Illustrator 25.1.0, SVG Export Plug-In . SVG Version: 6.00 Build 0)  -->
<svg version="1.1" id="Layer_1" xmlns="http://www.w3.org/2000/svg" xmlns:xlink="http://www.w3.org/1999/xlink" x="0px" y="0px"
	 viewBox="0 0 678.8 256.6" style="enable-background:new 0 0 678.8 256.6;" xml:space="preserve">
<style type="text/css">
	.st0{fill:#AA0000;}
</style>
<g>
	<path class="st0" d="M478.9,185.7c1,2.3,0,2.9-2,2.7c-1.1-0.1-2.5-0.4-3,1.1c-0.4,1.3,0.8,1.9,1.5,2.6c2.8,3.4,6.5,4.9,10.8,4.9
		c1.4,0,2.8-0.4,4.3,0.6c-2.2,1.8-3.7,4.8-6.8,4.2c-4-0.7-8.5-0.4-11.6-4c-1.4-1.6-3-3-4.6-4.5c-5-4.6-7-10.9-8.6-17.1
		c-1.5-5.8,1.4-10.4,5.5-14.3c1.1-1,2.4-1,3.5-0.3c2,1.1,4.1,1.4,6.2,1c2.2-0.4,3.8,0.3,5.4,1.7c1.1,0.9,2.2,1.8,3.4,2.6
		c2.6,1.9,4.7,1.9,7.4,0.1c5.2-3.6,9.2-3.3,14,0.8c0.4,0.3,0.7,0.6,0.6,1.1c-0.1,0.6-0.6,0.9-1.2,0.9c-1,0.1-2,0.4-2.9,0.2
		c-3.6-0.9-6.9,0.1-10.1,1.5c-4.8,2.1-9.7,2.7-14.9,1.8c-2.8-0.5-5-1.4-6.5-4c-0.7-1.2-1.5-3.3-3.2-2.7c-1.9,0.6-2.6,2.5-2.5,4.6
		c0,0.4,0,0.7,0,1.1c0.1,4.4,0.1,4.4,4.4,4.5c3.6,0,6.8,1.4,10.1,2.5c7.3,2.3,14.8,3.4,22.4,3c5.1-0.2,9.7,1,14.2,3.1
		c0.9,0.4,1.9,0.9,1.8,2c0,1.3-1.1,1.9-2.1,2.1c-1.7,0.4-3.6,1.7-5.1-0.3c-2.7,1.6-4-2.1-5.4-1.9c-2.7,0.3-4.9-0.7-7.3-0.9
		c-3.9-0.4-8,0-11.9-0.7C482.6,185,481,187.2,478.9,185.7z"/>
	<path class="st0" d="M508.2,136.4c0.1-3.2,1.5-4.7,4.7-5.1c3.6-0.4,7.1,0.1,10.5,1.5c2.9,1.3,5.9,2.4,8.9,3.6
		c0.6,0.2,1.2,0.5,1,1.3c-0.2,0.8-1,0.7-1.6,0.6c-1.3-0.2-2.6-0.5-3.9-0.9c-2.7-0.8-5.4-0.7-8.1,0.2c-3.4,1.1-6.9,0.3-10.4,0.4
		C508.1,138.2,508.2,137.2,508.2,136.4z"/>
	<path class="st0" d="M573.3,179.7c-5.5,4.3-11,8.7-16.3,13.5c0.5-4.1,1.5-7.9,4-11.1c1.1-1.4,2.9-1,4.4-1.5c2.1-0.6,4.4-0.8,6.3-2
		C572.8,178.4,573.9,177.9,573.3,179.7z"/>
	<path class="st0" d="M478.4,146.5c-0.8,2.2-2.8,2.5-4.7,2.6c-2.7,0.1-5.4,0-8.1,0c0,0.3,0,0.6,0,0.8c1.6,0.1,3.2,0.2,4.8,0.3
		c0.9,0.1,2-0.3,2.3,0.8c0.4,1.1-0.8,1.4-1.5,1.9c-0.2,0.2-0.3,0.4-0.4,0.6c1.2,0.9,2.2-0.2,3.3-0.2c-0.2,0.2-0.3,0.5-0.5,0.6
		c-1.2,0.8-2.7,1.2-3.7,0.1c-1-1.1,0.8-1.7,1.2-3c-2.4-0.2-4.7-0.4-7-0.6c-4.5-0.4-8.9-0.7-13.4-1.1c-1.6-0.1-2.3,0.4-2.7,2.1
		c-0.7,2.9-0.3,5.5,1.3,7.9c0.6,0.9,1.2,1.8,1.2,2.9c-2.4-3.2-4.6-6.4-3.3-10.9c0.6-2.3,1.6-3.4,4-3c0.8,0.1,1.6,0,3.1,0
		c-2.1-1.4-4.4-0.9-5.5-2.6c0.1-0.7,0.8-0.9,1.2-1.3c0.4-0.2,0.8-0.3,1.2-0.6c0.6-0.4,1-1,1-1.8c0-0.3-0.2-0.5-0.5-0.4
		c-0.9,0.2-0.7,1.1-1,1.7c-0.2,0.4-0.3,0.8-0.7,1.1c-0.2,0.2-0.5,0.3-0.8,0.2c-0.2-0.2-0.4-0.4-0.5-0.7c-0.1-1.8-0.7-3.7,0.9-5.2
		c3.9-1.2,6.2,0.7,5.2,4.5c-0.6,2.2,0.2,2.8,2.1,3.2c6.4,1,12.9,1.6,19.3-0.2C477.1,146.2,477.8,146,478.4,146.5z"/>
	<path class="st0" d="M583.5,150.3c-0.3,1,0.1,2.1-1,2.5c-0.9,0.3-1.6-0.2-2.1-0.8c-1.6-1.8-3.4-3-6-2.6c-0.9,0.2-1.4-0.6-0.7-1.3
		c1.7-1.6,3.7-2.6,6-1.9C581.7,146.8,583.1,148.2,583.5,150.3z"/>
	<path class="st0" d="M573.3,179.7c0.1-1.2-0.9-0.9-1.5-1.1c7.6-3.5,10.9-10.4,13.3-18.4C586.6,166.6,580.9,175.5,573.3,179.7z"/>
	<path class="st0" d="M476.8,135.2c-3.6,0-7.3-0.1-10.9-0.1c-1.3,0-2.6,0.2-4.2,0.3c3.8,2.7,8,2.7,12.2,3.8
		c-3.9,3.1-11.9,1.4-13.8-2.8c-0.5-1-1-0.8-1.6-0.8c-2.3-0.1-4.5,0.7-6.8,1.2c1.3-1.7,3.3-1.7,5-1.9c5.6-0.4,11.1-1,16.7-0.8
		C474.6,134.2,475.9,134.1,476.8,135.2z"/>
	<path class="st0" d="M607.4,105.6c-0.7-13.8-7.5-24.8-16.9-34.2c-1.8-1.8-3.1-3.5-3.9-5.8c-1.2-3.4-2-6.9-4.4-9.7
		c-12-13.3-26.4-21.9-44.7-23c-10.6-0.6-21.1,0.8-31.6,1c-9.7,0.2-18.1,3.7-25.3,10.2c-4.6,4.1-9.1,8.3-13.5,12.6
		c-4.4,4.2-7.5,9.3-9.6,15c-5.8,15.4-8.1,31.3-4.8,47.6c0.3,1.5-0.2,1.9-1.6,2c-3,0.1-6.1,0.5-9.1,0.5c-2.3,0.1-3.3,1.2-3.7,3.4
		c-0.5,2.3,0.7,4.1,1.3,6.2c1.8,6.5,2.4,13.3,5.2,19.6c0.3,0.7,0.3,1.6,0.3,2.4c-0.1,6.2,1,12.2,2.2,18.3
		c3.3,17.5,11.6,32.7,20.7,47.6c3.3,5.4,9.3,6.9,14.9,4.4c0.5-0.2,1.4-0.2,1.4-1c0-0.7-0.7-0.9-1.2-1.2c-3.2-1.7-6.6-3.3-9.7-5.2
		c-3.6-2.2-6.3-5.3-6.7-9.8c-0.8-8.2-4.9-15.1-9.1-21.9c-1.8-2.9-3.3-5.6-3.3-9.1c0-4.6-1.2-9-3.6-13c-0.9-1.9-2-3.7-2.9-5.6
		c-1-2.4-0.3-4.6,0.6-6.7c0.8-1.8,2.7-0.7,4.1-1c0.3-0.1-0.1,0,0.3,0c0.7-0.1,1.6,0.1,1.6-0.9c0-0.8-0.7-1.3-1.4-1.4
		c-1.2-0.1-2.2-0.5-3.1-1.2c-0.2,0.2-0.5,0.3-0.8,0.3c-3.1-0.9-4.5-3-4.7-6.3c-0.2-3.8,0-7.5,0.4-11.2c0.3-2.8,2.4-4.5,5.1-4.5
		c0.4,0,1-0.1,1.1,0.5c0.1,0.6-0.4,0.7-0.8,0.8c-3.4,1.4-3.7,2.1-3.1,5.6c0.2,1.4,0.6,2.8,0.6,4.2c0,2.4,1,3,3.1,2.2
		c0.4-0.2,0.7-0.4,1.1-0.5c2.2-1.4,4.7-1.5,7.2-1.6c0.5,0,0.9,0,1.3,0.2c0.4,0,0.8,0,1.2-0.1c0.3-0.9,1.3-0.4,2-0.4
		c3.5-0.4,6.9-0.3,10.4-0.3c1.1,0,2.1,0,3.1,0.6l0,0c1.1,0.1,2.1,1,3.3,0.5c0.5-0.5,1-1,1.8-0.4c0.8,0.7,0.8,1.5,0.4,2.4
		c-1.2,3-2.2,6-3.9,8.7c-1.9,1.3-3.9,2-6.2,2c-2.3,0-4.5,0.1-6.8,0.1c-0.3,0.2-0.6,0.4-0.6,0.9c-0.1,1.3,1.1,0.9,1.8,0.9
		c0.7,0.1,1.4-0.1,2.1,0c1,0.1,2.3-0.6,2.9,0.6c0.6,1.2-1.1,1.4-1.3,2.4c-0.1,0.2-0.1,0.3,0.2,0.6c1.2,0.5,2.4,0.2,3.6-0.6
		c1.3-0.9,2.7-1.8,4-2.7c5.6-4.2,8.8-10.2,12.1-16.1c1.4-2.5,2.7-2.8,4.5-0.5c1.1,1.4,1.1,3,0.9,4.6c-1.1,6.1,5.5,15.9,12.3,16.2
		c4.4,0.2,8.8,0.6,13.2,0.2c0.1,0,0.2-0.2,0.3-0.4c-0.5-1.1-1.6-1-2.5-1.2c-4.5-0.9-9.1-1.8-13.6-2.7c-2.3-0.5-3.9-1.9-4.6-4.1
		c-1.2-4.2-2.1-8.5-2.2-12.9c-0.1-3,1-4.2,4-4.7c11.5-1.6,23-1.2,34.2,2c2.3,0.6,3.6,2,3.5,4.6c-0.1,3.7-0.7,7.3-1.4,10.9
		c-1,5-2.7,6.2-7.9,6.7c-1.3,0.1-2.7,0.2-4,0.3c-0.9,0.1-2,0-2.6,1.4c3.1,0.4,6.1-0.1,9.1-0.3c4.1-0.3,6.3-2.5,7.6-6.1
		c1-2.7,2-5.4,3.1-8c0.9-2.1,2.4-3.4,4.8-3c2.4,0.4,4.7,0.9,7.1,1.4c1.5,0.3,3,1,3.7,2.4c1.6,3,4.2,5.6,3.3,9.5
		c-0.2,0.7,0.2,1.6,0.5,2.3c0.3,0.7-0.3,1.9,0.9,1.9c1,0,1-1.1,1.2-1.9c0.8-2.6,1.2-5.5,3.5-7.4c5.8-4.9,11.2-5.9,15.2-0.2
		c0.9,1.3,1.4,3,2.2,4.6c0.4-0.4,0.9-0.7,1.2-1.1c4.6-7.8,10.2-15.1,14-23.4C604.6,119.5,607.8,113,607.4,105.6z M540.1,38.1
		c-15.6,0.7-30.9,2.6-46.3,5.7C498.5,38.1,531,34,540.1,38.1z M481.7,129.7c-0.6,1.5-2,2.5-3.4,1.6c-2.9-1.7-6.2-1.6-9.1-2.6
		c-3.3-1.2-6-0.1-8.8,1.5c0.5-2.2,2.2-3.4,2.7-5.4c0.2-0.9,1.2-0.6,1.8-0.6c5.2,0.4,10.2,1.2,15,3.2
		C480.9,127.8,482.5,128,481.7,129.7z M561.1,131.3c-0.1,1.9-0.8,2.6-2.7,2c-8.5-2.9-17.4-4-26.1-5.8c-11.5-2.4-23-2.6-34.6-0.5
		c-4,0.7-7.8-0.6-11.6-1.5c-3.1-0.7-6.3-1.4-9.7-2.1c1.6-1.2,4.1-0.5,4-3.1c-0.1-2.3-2.1-4-4.7-4.5c-3-0.5-6-1-8.9-1.7
		c-2.3-0.5-2.6-1.5-1-3.1c5-5.1,10.8-9.3,17.1-12.8c1.7-0.9,3.4-0.1,4.9-0.4c5-1,9.6,0.5,14,2.5c5.2,2.3,10.6,2.1,16,1.9
		c4.2-0.1,8.3-1.1,12.3-2.4c4.4-1.4,8.9-1.9,13.4-2.4c1.7-0.2,2.8,0.4,3.8,1.8c2.7,3.5,3.8,7.6,5.4,11.6c1.6,3.8,3.3,7.5,5.7,10.9
		C560.5,124.5,561.2,127.8,561.1,131.3z M562.6,80.8c-3.6,3-17.3,7.3-21.9,6.8c2-1.7,4.2-2.1,6.3-3c3.2-1.4,6.4-2.8,9.3-4.7
		c1.9-1.2,3.9-1.1,5.9-0.9c0.4,0.1,0.9,0.2,1,0.7C563.3,80.2,562.9,80.5,562.6,80.8z"/>
	<path class="st0" d="M480.1,135.7c-1.3,1-2.2,0-3.3-0.5C478,134.7,479,135.6,480.1,135.7z"/>
	<path class="st0" d="M450.1,144.7c0-0.8,0-1.6,0-2.4c0-0.7-0.1-1.6,0.8-1.7c0.8-0.1,1.7-0.2,2.3,0.2c0.9,0.5,0.5,1.4,0.2,2.2
		C452.5,145.9,452.1,146.1,450.1,144.7C450.1,144.8,450.1,144.7,450.1,144.7z"/>
	<path class="st0" d="M449.5,144.8c-0.5-1.8-1.6-3.8,0.5-5.3C448.9,141.2,449.8,143.1,449.5,144.8z"/>
	<path class="st0" d="M530.5,124.3c-5.1-0.8-10.5-1-15.8-1c-1.3,0-3.2,0.6-3.7-1.3c-0.5-1.9,0.7-3.4,2.1-4.7c0.7-0.7,1.9-1,2.8-0.7
		c3.8,1.5,7.9,0.8,11.7,2.2c1.5,0.6,3,1.1,4.2,2.2c0.8,0.8,2.3,1.3,1.8,2.7C533.1,125.1,531.7,124.1,530.5,124.3z"/>
</g>
<g>
	<path class="st0" d="M60,62.4h8.3c1.5,0,2.2,0.7,2.2,2.2v34.7c0,1.5,0.7,2.2,2.2,2.2h16.5c1.5,0,2.2,0.7,2.2,2.2v8.3
		c0,1.5-0.7,2.2-2.2,2.2H60c-1.5,0-2.2-0.7-2.2-2.2V64.6C57.8,63.1,58.5,62.4,60,62.4z"/>
	<path class="st0" d="M135,58.2c0,0.8,0,1.6-0.1,2.6c-0.1,0.9-0.3,1.8-0.7,2.7c-0.4,0.9-1,1.7-1.7,2.4c-0.7,0.7-1.8,1.3-3,1.7
		c0.7,1,1.3,2,1.7,3.1c0.4,1.1,0.7,2.1,1,3.2c0.2,1,0.4,2,0.4,2.9c0,0.9,0.1,1.7,0.1,2.3v18.5c0,0.8,0,1.8-0.1,3
		c-0.1,1.2-0.4,2.5-0.8,3.8c-0.4,1.3-1,2.7-1.8,4c-0.8,1.3-1.9,2.5-3.2,3.6c-1.4,1.1-3.1,1.9-5.2,2.6c-2.1,0.7-4.6,1-7.5,1
		c-2.9,0-5.4-0.3-7.5-1c-2.1-0.7-3.8-1.5-5.2-2.6c-1.4-1.1-2.4-2.3-3.2-3.6c-0.8-1.3-1.4-2.7-1.8-4c-0.4-1.3-0.7-2.6-0.8-3.8
		c-0.1-1.2-0.1-2.2-0.1-3V79.1c0-0.8,0-1.8,0.1-3c0.1-1.2,0.4-2.5,0.8-3.8c0.4-1.3,1-2.7,1.8-4c0.8-1.3,1.9-2.5,3.2-3.6
		c1.4-1.1,3.1-1.9,5.2-2.6c2.1-0.7,4.6-1,7.5-1c2.7,0,5,0.3,6.9,0.8c1.9,0.5,3.6,1.3,4.9,2.2c0.9-0.3,1.6-0.6,2.1-0.8
		c0.5-0.2,0.9-0.5,1.1-0.7c0.2-0.2,0.4-0.5,0.4-0.8c0-0.3,0.1-0.6,0.1-1v-3.1c0-1.1,0.5-1.7,1.6-1.7h2.4c1.2,0,1.7,0.6,1.6,1.7V58.2
		z M103.7,56.5c-0.9,0-1.5-0.3-1.8-1c-0.2-0.7,0-1.1,0.6-1.4l21.3-9.6c0.4-0.4,0.8-0.7,1.1-0.9c0.3-0.2,0.8-0.3,1.3-0.3h3.6
		c1,0,1.6,0.3,1.9,1c0.2,0.6-0.1,1.2-1,1.6l-23.7,9.8c-0.4,0.2-0.8,0.4-1.1,0.6c-0.4,0.2-0.8,0.3-1.3,0.3H103.7z M119.8,83
		c0-1.4,0-2.7-0.1-3.9c-0.1-1.1-0.3-2.1-0.7-2.9c-0.4-0.8-1-1.4-1.7-1.8c-0.8-0.4-1.8-0.6-3.2-0.6c-1.4,0-2.5,0.2-3.2,0.6
		c-0.8,0.4-1.3,1-1.7,1.8c-0.4,0.8-0.6,1.8-0.7,2.9c-0.1,1.1-0.1,2.4-0.1,3.9v10.7c0,1.4,0,2.7,0.1,3.9c0.1,1.1,0.3,2.1,0.7,2.9
		c0.4,0.8,1,1.4,1.7,1.8c0.8,0.4,1.8,0.6,3.2,0.6c1.4,0,2.5-0.2,3.2-0.6c0.8-0.4,1.3-1,1.7-1.8c0.4-0.8,0.6-1.8,0.7-2.9
		c0.1-1.1,0.1-2.4,0.1-3.9V83z"/>
	<path class="st0" d="M157.8,62.4c6.6,0,11.3,1.4,14.2,4.3c2.9,2.9,4.3,7.4,4.3,13.5c0,6.1-1.4,10.6-4.3,13.5
		c-2.9,2.9-7.6,4.3-14.2,4.3h-3.6c-1.5,0-2.2,0.7-2.2,2.2v11.9c0,1.5-0.7,2.2-2.2,2.2h-8.3c-1.5,0-2.2-0.7-2.2-2.2V64.7
		c0-1.4,0.7-2.2,2.2-2.3H157.8z M158.2,85.2c0.9,0,1.7,0,2.3-0.1c0.7-0.1,1.2-0.3,1.7-0.7c0.4-0.3,0.8-0.9,1-1.5
		c0.2-0.7,0.3-1.6,0.3-2.7c0-1.1-0.1-2-0.3-2.7c-0.2-0.7-0.6-1.2-1-1.5c-0.4-0.3-1-0.6-1.7-0.7c-0.7-0.1-1.4-0.1-2.3-0.1h-4
		c-1.5,0-2.2,0.7-2.2,2.2V83c0,1.5,0.7,2.2,2.2,2.2H158.2z"/>
	<path class="st0" d="M215,112.1V77.4c0-1.5-0.7-2.2-2.2-2.2h-10.4c-1.5,0-2.2-0.7-2.2-2.2v-8.3c0-1.5,0.7-2.2,2.2-2.2h38
		c1.5,0,2.2,0.7,2.2,2.2v8.3c0,1.5-0.7,2.2-2.2,2.2H230c-1.5,0-2.2,0.7-2.2,2.2v34.7c0,1.5-0.7,2.2-2.2,2.2h-8.3
		C215.8,114.3,215,113.6,215,112.1z"/>
	<path class="st0" d="M282.8,97.6c0,0.8,0,1.8-0.1,3c-0.1,1.2-0.4,2.5-0.8,3.8c-0.4,1.3-1,2.7-1.8,4c-0.8,1.3-1.9,2.5-3.2,3.6
		c-1.4,1.1-3.1,1.9-5.2,2.6c-2.1,0.7-4.6,1-7.5,1c-2.9,0-5.4-0.3-7.5-1c-2.1-0.7-3.8-1.5-5.2-2.6c-1.4-1.1-2.4-2.3-3.2-3.6
		c-0.8-1.3-1.4-2.7-1.8-4c-0.4-1.3-0.7-2.6-0.8-3.8c-0.1-1.2-0.1-2.2-0.1-3V79.1c0-0.8,0-1.8,0.1-3c0.1-1.2,0.4-2.5,0.8-3.8
		c0.4-1.3,1-2.7,1.8-4c0.8-1.3,1.9-2.5,3.2-3.6c1.4-1.1,3.1-1.9,5.2-2.6c2.1-0.7,4.6-1,7.5-1c2.9,0,5.4,0.3,7.5,1
		c2.1,0.7,3.8,1.5,5.2,2.6c1.4,1.1,2.4,2.3,3.2,3.6c0.8,1.3,1.4,2.7,1.8,4c0.4,1.3,0.7,2.6,0.8,3.8c0.1,1.2,0.1,2.2,0.1,3V97.6z
		 M270.1,83c0-1.4,0-2.7-0.1-3.9c-0.1-1.1-0.3-2.1-0.7-2.9c-0.4-0.8-1-1.4-1.7-1.8c-0.8-0.4-1.8-0.6-3.2-0.6c-1.4,0-2.5,0.2-3.2,0.6
		c-0.8,0.4-1.3,1-1.7,1.8c-0.4,0.8-0.6,1.8-0.7,2.9c-0.1,1.1-0.1,2.4-0.1,3.9v10.7c0,1.4,0,2.7,0.1,3.9c0.1,1.1,0.3,2.1,0.7,2.9
		c0.4,0.8,1,1.4,1.7,1.8c0.8,0.4,1.8,0.6,3.2,0.6c1.4,0,2.5-0.2,3.2-0.6c0.8-0.4,1.3-1,1.7-1.8c0.4-0.8,0.6-1.8,0.7-2.9
		c0.1-1.1,0.1-2.4,0.1-3.9V83z"/>
	<path class="st0" d="M291.7,62.4h31.1c1.5,0,2.2,0.7,2.2,2.2v8.3c0,1.5-0.7,2.2-2.2,2.2h-17.9c-1.5,0-2.2,0.7-2.2,2.2v2.4
		c0,1.5,0.7,2.2,2.2,2.2h11.5c1.5,0,2.2,0.7,2.2,2.2v8.3c0,1.5-0.7,2.2-2.2,2.2h-11.5c-1.5,0-2.2,0.7-2.2,2.2v2.4
		c0,1.5,0.7,2.2,2.2,2.2h17.9c1.5,0,2.2,0.7,2.2,2.2v8.3c0,1.5-0.7,2.2-2.2,2.2h-31.1c-1.5,0-2.2-0.7-2.2-2.2V64.6
		C289.5,63.1,290.2,62.4,291.7,62.4z"/>
	<path class="st0" d="M333,62.4h8.2c1.5,0,2.2,0.7,2.2,2.2v47.4c0,1.5-0.7,2.2-2.2,2.2H333c-1.5,0-2.2-0.7-2.2-2.2V64.6
		C330.8,63.1,331.5,62.4,333,62.4z"/>
	<path class="st0" d="M350.2,76.1c0.1-1.2,0.4-2.5,0.8-3.8c0.4-1.3,1-2.7,1.8-4c0.8-1.3,1.9-2.5,3.2-3.6c1.4-1.1,3.1-1.9,5.2-2.6
		c2.1-0.7,4.6-1,7.5-1c4,0,7.1,0.6,9.5,1.7c2.4,1.2,4.2,2.6,5.6,4.3c1.3,1.7,2.2,3.5,2.6,5.3c0.4,1.9,0.7,3.5,0.8,5
		c0,0.5-0.1,1-0.4,1.4c-0.3,0.4-0.7,0.6-1.3,0.7l-8.2,1.9c-0.8,0.1-1.5,0-2-0.4c-0.5-0.4-0.9-1.1-1-1.9c-0.2-1.6-0.7-2.9-1.5-3.8
		c-0.8-0.9-2.2-1.4-4.2-1.4c-1.4,0-2.5,0.2-3.2,0.6c-0.8,0.4-1.3,1-1.7,1.8c-0.4,0.8-0.6,1.8-0.7,2.9c-0.1,1.1-0.1,2.4-0.1,3.9v10.7
		c0,1.4,0,2.7,0.1,3.9c0.1,1.1,0.3,2.1,0.7,2.9c0.4,0.8,1,1.4,1.7,1.8c0.8,0.4,1.8,0.6,3.2,0.6c1,0,1.9-0.1,2.6-0.4
		c0.7-0.2,1.2-0.6,1.6-1c0.4-0.4,0.7-1,1-1.7s0.4-1.4,0.5-2.3c0.1-0.8,0.4-1.4,1-1.8c0.5-0.4,1.2-0.5,1.9-0.3l8.4,1.9
		c0.5,0.1,1,0.3,1.3,0.7c0.3,0.4,0.4,0.9,0.4,1.4c-0.1,1.4-0.4,3.1-0.8,4.9c-0.4,1.9-1.3,3.6-2.6,5.3c-1.3,1.7-3.2,3.1-5.6,4.3
		c-2.4,1.2-5.6,1.7-9.5,1.7c-2.9,0-5.4-0.3-7.5-1c-2.1-0.7-3.8-1.5-5.2-2.6c-1.4-1.1-2.4-2.3-3.2-3.6c-0.8-1.3-1.4-2.7-1.8-4
		c-0.4-1.3-0.7-2.6-0.8-3.8c-0.1-1.2-0.1-2.2-0.1-3V79.1C350,78.3,350.1,77.3,350.2,76.1z"/>
</g>
<g>
	<path class="st0" d="M67.3,194.5v-30.9c0-1.3-0.7-2-2-2h-9.3c-1.3,0-2-0.7-2-2v-7.4c0-1.3,0.7-2,2-2h33.8c1.3,0,2,0.7,2,2v7.4
		c0,1.3-0.7,2-2,2h-9.3c-1.3,0-2,0.7-2,2v30.9c0,1.3-0.7,2-2,2h-7.4C68,196.5,67.3,195.8,67.3,194.5z"/>
	<path class="st0" d="M97.8,150.2h7.4c1.3,0,2,0.7,2,2v16.5c0,1.3,0.7,2,2,2h6.3c1.3,0,2-0.7,2-2v-16.5c0-1.3,0.7-2,2-2h7.4
		c1.3,0,2,0.7,2,2v42.3c0,1.3-0.7,2-2,2h-7.4c-1.3,0-2-0.7-2-2V184c0-1.3-0.7-2-2-2h-6.3c-1.3,0-2,0.7-2,2v10.4c0,1.3-0.7,2-2,2
		h-7.4c-1.3,0-2-0.7-2-2v-42.3C95.9,150.9,96.5,150.2,97.8,150.2z"/>
	<path class="st0" d="M167.6,166.2v28c0,1.5-0.7,2.2-2,2.2h-7.4c-1.3,0-2-0.7-2-2v-5.8c0-1.3-0.7-2-2-2h-5.7c-1.3,0-2,0.7-2,2v5.8
		c0,1.3-0.7,2-2,2h-7.4c-1.3,0-2-0.7-2-2.2v-28c0-2.1,0.1-4.1,0.4-6.2c0.3-2,1-3.9,2.1-5.5c1.1-1.6,2.7-3,4.9-4
		c2.2-1,5.1-1.5,8.8-1.5s6.6,0.5,8.8,1.5c2.2,1,3.8,2.3,4.9,4c1.1,1.6,1.8,3.5,2.1,5.5C167.4,162.1,167.6,164.1,167.6,166.2z
		 M160.3,143.1c-0.5-0.5-1.1-0.9-1.6-1.3c-0.5-0.4-1.1-0.7-1.8-1c-0.7-0.3-1.5-0.5-2.4-0.6c-0.9-0.1-2.1-0.2-3.4-0.2
		c-1.8,0-3.4,0.2-4.7,0.5c-1.3,0.3-2.6,1.1-3.9,2.4c-0.8,0.8-0.8,1.6,0,2.4l1.5,1.5c0.8,0.8,1.5,0.8,2.2,0c0.3-0.1,0.5-0.3,0.7-0.5
		c0.2-0.2,0.5-0.3,0.8-0.5c0.3-0.2,0.7-0.3,1.3-0.4c0.6-0.1,1.3-0.1,2.2-0.1c1,0,1.8,0,2.4,0.1c0.6,0.1,1,0.2,1.4,0.3
		c0.4,0.1,0.6,0.3,0.8,0.5s0.4,0.4,0.6,0.6c0.7,0.8,1.5,0.8,2.3,0l1.5-1.5C161,144.7,161,143.9,160.3,143.1z M156.2,173.3v-7.1
		c0-0.8,0-1.5-0.1-2.1c-0.1-0.6-0.3-1.1-0.6-1.5c-0.3-0.4-0.8-0.7-1.5-0.9c-0.6-0.2-1.5-0.3-2.6-0.3c-1.1,0-2,0.1-2.6,0.3
		c-0.6,0.2-1.1,0.5-1.5,0.9c-0.3,0.4-0.5,0.9-0.6,1.5c-0.1,0.6-0.1,1.3-0.1,2.1v7.2c0,1.3,0.7,2,2,2h5.7
		C155.5,175.3,156.2,174.7,156.2,173.3z M158.4,135.9c-0.8-0.4-1.1-0.9-0.9-1.4c0.2-0.6,0.8-0.8,1.7-0.8h3.2c0.5,0,0.9,0.1,1.2,0.2
		c0.3,0.2,0.6,0.4,1,0.8l17.7,9.7c0.6,0.4,0.8,0.8,0.6,1.4c-0.2,0.6-0.8,0.8-1.6,0.8h-0.9c-0.4,0-0.8-0.1-1.1-0.2
		c-0.3-0.2-0.7-0.3-1.1-0.6L158.4,135.9z"/>
	<path class="st0" d="M173.3,150.2h9.5c1.1,0,1.9,0.5,2.2,1.5L190,164c0.3,0.7,0.6,0.7,0.9,0l4.9-12.3c0.4-1,1.1-1.5,2.2-1.5h9.5
		c0.7,0,1.3,0.2,1.6,0.6c0.3,0.4,0.3,1-0.1,1.7l-11.8,26.4c-0.1,0.2-0.1,0.4-0.1,0.8v14.7c0,1.3-0.7,2-2,2h-9.3c-1.3,0-2-0.7-2-2
		v-14.7c0-0.4,0-0.6-0.1-0.8l-11.9-26.4c-0.4-0.7-0.4-1.3-0.1-1.7C172,150.4,172.6,150.2,173.3,150.2z"/>
	<path class="st0" d="M235.4,150.2h7.4c1.3,0,2,0.7,2,2v30.9c0,1.3,0.7,2,2,2h14.7c1.3,0,2,0.7,2,2v7.4c0,1.3-0.7,2-2,2h-26.1
		c-1.3,0-2-0.7-2-2v-42.3C233.4,150.9,234.1,150.2,235.4,150.2z"/>
	<path class="st0" d="M300.1,181.6c0,0.7,0,1.6-0.1,2.7c-0.1,1.1-0.3,2.2-0.7,3.4c-0.4,1.2-0.9,2.4-1.6,3.6
		c-0.7,1.2-1.7,2.3-2.9,3.2c-1.2,0.9-2.7,1.7-4.6,2.3c-1.9,0.6-4.1,0.9-6.7,0.9c-2.6,0-4.8-0.3-6.7-0.9c-1.9-0.6-3.4-1.4-4.6-2.3
		c-1.2-0.9-2.2-2-2.9-3.2c-0.7-1.2-1.2-2.4-1.6-3.6c-0.4-1.2-0.6-2.3-0.7-3.4c-0.1-1.1-0.1-2-0.1-2.7v-16.5c0-0.7,0-1.6,0.1-2.7
		c0.1-1.1,0.3-2.2,0.7-3.4c0.4-1.2,0.9-2.4,1.6-3.6c0.7-1.2,1.7-2.3,2.9-3.2c1.2-0.9,2.7-1.7,4.6-2.3s4.1-0.9,6.7-0.9
		c2.6,0,4.8,0.3,6.7,0.9c1.9,0.6,3.4,1.4,4.6,2.3c1.2,0.9,2.2,2,2.9,3.2c0.7,1.2,1.2,2.4,1.6,3.6c0.4,1.2,0.6,2.3,0.7,3.4
		c0.1,1.1,0.1,2,0.1,2.7V181.6z M288.7,168.6c0-1.3,0-2.4-0.1-3.4c-0.1-1-0.3-1.9-0.7-2.6c-0.4-0.7-0.9-1.2-1.6-1.6
		c-0.7-0.4-1.6-0.6-2.9-0.6c-1.2,0-2.2,0.2-2.9,0.6c-0.7,0.4-1.2,0.9-1.6,1.6c-0.4,0.7-0.6,1.6-0.7,2.6c-0.1,1-0.1,2.2-0.1,3.4v9.5
		c0,1.3,0,2.4,0.1,3.4c0.1,1,0.3,1.9,0.7,2.6c0.4,0.7,0.9,1.2,1.6,1.6c0.7,0.4,1.6,0.6,2.9,0.6c1.2,0,2.2-0.2,2.9-0.6
		c0.7-0.4,1.2-0.9,1.6-1.6c0.4-0.7,0.6-1.6,0.7-2.6c0.1-1,0.1-2.2,0.1-3.4V168.6z"/>
	<path class="st0" d="M308,150.2h9.7c1.1,0,1.9,0.5,2.3,1.5l9,22c0.1,0.3,0.3,0.4,0.5,0.4c0.2,0,0.3-0.2,0.3-0.6v-21.3
		c0-1.3,0.7-2,2-2h7.4c1.3,0,2,0.7,2,2v42.3c0,1.3-0.7,2-2,2h-9.7c-1.1,0-1.9-0.5-2.3-1.5l-9-22c-0.1-0.3-0.3-0.4-0.5-0.4
		c-0.2,0-0.3,0.2-0.3,0.6v21.3c0,1.3-0.7,2-2,2H308c-1.3,0-2-0.7-2-2v-42.3C306,150.9,306.7,150.2,308,150.2z"/>
	<path class="st0" d="M347.3,162.4c0.1-1.1,0.3-2.2,0.7-3.4c0.4-1.2,0.9-2.4,1.6-3.6c0.7-1.2,1.7-2.3,2.9-3.2
		c1.2-0.9,2.7-1.7,4.6-2.3s4.1-0.9,6.7-0.9c3.5,0,6.3,0.5,8.4,1.5c2.1,1,3.8,2.2,5,3.7c1.2,1.5,2,3,2.4,4.7c0.4,1.7,0.7,3.1,0.8,4.4
		c0,1.2-0.5,1.9-1.7,2.2l-7.5,1.7c-1.3,0.3-2-0.3-2.2-1.7c-0.1-1.6-0.6-2.8-1.3-3.7c-0.7-0.9-2-1.3-3.9-1.3c-1.2,0-2.2,0.2-2.9,0.6
		c-0.7,0.4-1.2,0.9-1.6,1.6c-0.4,0.7-0.6,1.6-0.7,2.6c-0.1,1-0.1,2.2-0.1,3.4v9.5c0,1.3,0,2.4,0.1,3.4c0.1,1,0.3,1.9,0.7,2.6
		c0.4,0.7,0.9,1.2,1.6,1.6c0.7,0.4,1.6,0.6,2.9,0.6c1.2,0,2.2-0.2,2.9-0.5c0.7-0.4,1.2-0.8,1.6-1.4c0.4-0.6,0.6-1.3,0.7-2
		s0.1-1.6,0.1-2.3h-3.8c-1.3,0-2-0.7-2-2v-5.3c0-1.3,0.7-2,2-2h13.2c1.3,0,2,0.7,2,2v8.9c0,0.7,0,1.6-0.1,2.7
		c-0.1,1.1-0.3,2.2-0.7,3.4c-0.4,1.2-0.9,2.4-1.6,3.6c-0.7,1.2-1.7,2.3-2.9,3.2c-1.2,0.9-2.7,1.7-4.6,2.3c-1.9,0.6-4.1,0.9-6.7,0.9
		c-2.6,0-4.8-0.3-6.7-0.9c-1.9-0.6-3.4-1.4-4.6-2.3c-1.2-0.9-2.2-2-2.9-3.2s-1.2-2.4-1.6-3.6c-0.4-1.2-0.6-2.3-0.7-3.4
		c-0.1-1.1-0.1-2-0.1-2.7v-16.5C347.1,164.4,347.2,163.5,347.3,162.4z"/>
</g>
</svg>
